<?xml version="1.0" encoding="UTF-8"?>
<svg id="Layer_1" data-name="Layer 1" xmlns="http://www.w3.org/2000/svg" viewBox="0 0 75 100">
  <g id="btnBorder">
    <path d="M37.5,.75c20.26,0,36.75,22.09,36.75,49.25s-16.49,49.25-36.75,49.25S.75,77.16,.75,50,17.24,.75,37.5,.75m0-.75C16.79,0,0,22.39,0,50s16.79,50,37.5,50,37.5-22.39,37.5-50S58.21,0,37.5,0h0Z" fill="gray"/>
  </g>
  <g id="arr1">
    <path d="M14.07,17.5l20.67,20.67c1.56,1.56,4.09,1.56,5.65,0l20.54-20.54" fill="none" stroke="gray" stroke-miterlimit="10"/>
  </g>
  <g id="arr2">
    <path d="M14.07,37.5l20.67,20.67c1.56,1.56,4.09,1.56,5.65,0l20.54-20.54" fill="none" stroke="gray" stroke-miterlimit="10"/>
  </g>
  <g id="arr3">
    <path d="M14.07,57.5l20.67,20.67c1.56,1.56,4.09,1.56,5.65,0l20.54-20.54" fill="none" stroke="gray" stroke-miterlimit="10"/>
  </g>
</svg>