<?xml version="1.0" encoding="UTF-8"?>
<svg id="logo" xmlns="http://www.w3.org/2000/svg" viewBox="0 0 250 150">
  <rect id="d-7" x="89.87" y="10.5" width="24.67" height="18.5" fill="#c3d9d7"/>
  <rect id="d-5" x="108.37" y="69.7" width="24.67" height="18.5" transform="translate(-20.47 108.47) rotate(-45)" fill="#c3d9d7"/>
  <rect id="d-6" x="108.84" y="22.32" width="24.67" height="18.5" transform="translate(154.41 152.3) rotate(-120)" fill="#c3d9d7"/>
  <rect id="d-4" x="89.87" y="84.5" width="24.67" height="18.5" fill="#c3d9d7"/>
  <g id="d-3">
    <rect id="d3-block" x="61.5" y="84.5" width="24.67" height="18.5" fill="#e1d2cb" stroke="#000" stroke-miterlimit="10" stroke-width="1.23"/>
    <rect id="d3-circle" x="54.97" y="97.2" width="12.33" height="12.33" rx="6.17" ry="6.17" fill="#27aae1"/>
  </g>
  <rect id="d-2" x="61.5" y="32.7" width="24.67" height="48.1" fill="#c3d9d7"/>
  <g id="d-1">
    <rect id="d1-block" x="61.5" y="10.5" width="24.67" height="18.5" fill="#e1d2cb" stroke="#000" stroke-miterlimit="10" stroke-width="1.23"/>
    <rect id="d1-circle" x="69.97" y="3.97" width="12.33" height="12.33" rx="6.17" ry="6.17" fill="#27aae1"/>
  </g>
  <g id="l-2">
    <rect id="l2-block" x="170.17" y="52.74" width="16.54" height="45.63" transform="translate(164.02 268.8) rotate(-108.68)" fill="#708c8a" stroke="#000" stroke-miterlimit="10"/>
    <rect id="l2-circle" x="182.1" y="57.03" width="12.33" height="12.33" rx="6.17" ry="6.17" fill="#27aae1" stroke="#000" stroke-miterlimit="10"/>
  </g>
  <rect id="l-1" x="122.09" y="38.44" width="24.67" height="59.61" transform="translate(-14.75 46.45) rotate(-18.6)" fill="#708c8a"/>
  <g id="dev">
    <path id="d-path" d="M57.86,114.06c0-.49,.34-.83,.83-.83h5.54c4.47,0,6.63,2.08,6.63,6.53v5.1c0,4.47-2.16,6.53-6.63,6.53h-5.54c-.49,0-.83-.31-.83-.81v-16.51Zm6.32,15.21c3.46,0,4.16-1.85,4.16-4.71v-4.5c0-2.86-.7-4.71-4.16-4.71h-3.85v13.91h3.85Z"/>
    <path id="e1-path" d="M74.01,123.1c0-2.86,1.95-5.46,5.36-5.46s5.41,2.73,5.41,5.46v1.59c0,.34-.26,.57-.57,.57h-7.8v.99c0,1.48,.65,3.38,3.22,3.38,1.33,0,2.42-.26,3.15-.47,.52-.13,.91,0,1.04,.52l.13,.47c.1,.44-.1,.83-.6,.99-.78,.23-2.21,.57-3.69,.57-3.82,0-5.64-2.68-5.64-5.46v-3.15Zm8.37,.39v-.52c0-1.53-.78-3.25-2.99-3.25s-2.99,1.72-2.99,3.25v.52h5.98Z"/>
    <path id="v-path" d="M86.85,118.92c-.16-.49,.08-.94,.57-.94h.86c.49,0,.81,.21,.99,.78l2.18,6.5c.34,1.04,.75,2.63,1.04,3.87,.29-1.25,.7-2.81,1.04-3.87l2.21-6.47c.16-.55,.47-.81,.96-.81h.88c.49,0,.73,.44,.55,.94l-4,11.65c-.18,.52-.57,.81-1.09,.81h-1.09c-.49,0-.88-.26-1.07-.81l-4.03-11.65Z"/>
    <path id="e2-path" d="M100.37,123.1c0-2.86,1.95-5.46,5.36-5.46s5.41,2.73,5.41,5.46v1.59c0,.34-.26,.57-.57,.57h-7.8v.99c0,1.48,.65,3.38,3.22,3.38,1.33,0,2.42-.26,3.15-.47,.52-.13,.91,0,1.04,.52l.13,.47c.1,.44-.1,.83-.6,.99-.78,.23-2.21,.57-3.69,.57-3.82,0-5.64-2.68-5.64-5.46v-3.15Zm8.37,.39v-.52c0-1.53-.78-3.25-2.99-3.25s-2.99,1.72-2.99,3.25v.52h5.98Z"/>
    <path id="l-path" d="M114.54,113.33c0-.49,.34-.83,.83-.83h.75c.49,0,.81,.34,.81,.83v15.37c0,.62,.18,.81,.34,.94,.29,.16,.39,.44,.29,.83l-.13,.57c-.1,.36-.31,.68-.94,.57-.86-.21-1.95-.65-1.95-2.68v-15.6Z"/>
    <path id="o-path" d="M120.52,123.57c0-3.61,2.08-5.93,5.59-5.93s5.62,2.31,5.62,5.93v2.21c0,3.64-2.11,5.93-5.62,5.93s-5.59-2.29-5.59-5.93v-2.21Zm5.59,6.06c2.37,0,3.17-1.53,3.17-4.06v-1.79c0-2.47-.81-4.06-3.17-4.06s-3.17,1.59-3.17,4.06v1.79c0,2.52,.83,4.06,3.17,4.06Z"/>
    <path id="p-path" d="M137.66,135.79c0,.49-.34,.81-.83,.81h-.75c-.49,0-.81-.31-.81-.81v-16.98c0-.49,.29-.83,.78-.83h.42c.49,0,.81,.23,.86,.68l.1,.62c1.25-1.04,2.42-1.64,3.77-1.64,3.04,0,4.89,2,4.89,5.43v3.22c0,3.38-1.85,5.41-4.89,5.41-1.27,0-2.37-.55-3.54-1.46v5.54Zm3.2-6.16c1.98,0,2.78-1.22,2.78-3.74v-2.39c0-2.55-.81-3.77-2.78-3.77-1.2,0-2.24,.73-3.2,1.53v6.92c1.07,.78,2,1.46,3.2,1.46Z"/>
    <path id="m-path" d="M149.62,118.81c0-.49,.29-.83,.78-.83h.44c.49,0,.78,.26,.83,.7l.08,.62c.99-.88,2.26-1.66,3.69-1.66,1.82,0,3.07,.7,3.72,1.87,1.12-.99,2.52-1.87,4.08-1.87,2.89,0,4.37,1.77,4.37,4.52v8.4c0,.49-.34,.81-.83,.81h-.75c-.49,0-.81-.31-.81-.81v-7.96c0-1.92-.57-2.89-2.39-2.89-1.12,0-2.18,.68-3.12,1.51,.08,.31,.1,.65,.1,.99v8.35c0,.49-.31,.81-.81,.81h-.75c-.49,0-.83-.31-.83-.81v-7.96c0-1.92-.6-2.89-2.39-2.89-1.17,0-2.13,.73-3.02,1.51v9.33c0,.49-.34,.81-.83,.81h-.75c-.49,0-.81-.31-.81-.81v-11.75Z"/>
    <path id="e3-path" d="M171.01,123.1c0-2.86,1.95-5.46,5.36-5.46s5.41,2.73,5.41,5.46v1.59c0,.34-.26,.57-.57,.57h-7.8v.99c0,1.48,.65,3.38,3.22,3.38,1.33,0,2.42-.26,3.15-.47,.52-.13,.91,0,1.04,.52l.13,.47c.1,.44-.1,.83-.6,.99-.78,.23-2.21,.57-3.69,.57-3.82,0-5.64-2.68-5.64-5.46v-3.15Zm8.37,.39v-.52c0-1.53-.78-3.25-2.99-3.25s-2.99,1.72-2.99,3.25v.52h5.98Z"/>
    <path id="n-path" d="M185.18,118.81c0-.49,.29-.83,.78-.83h.39c.49,0,.83,.21,.88,.7l.08,.62c1.27-1.04,2.57-1.66,3.93-1.66,2.89,0,4.39,1.77,4.39,4.52v8.4c0,.49-.34,.81-.83,.81h-.75c-.49,0-.81-.31-.81-.81v-7.96c0-1.92-.6-2.89-2.42-2.89-1.17,0-2.18,.62-3.25,1.51v9.33c0,.49-.34,.81-.83,.81h-.75c-.49,0-.81-.31-.81-.81v-11.75Z"/>
    <path id="t-path" d="M200.03,119.78l-1.35-.1c-.57-.08-.81-.26-.81-.75v-.23c0-.49,.31-.7,.81-.7h1.35v-3.46c0-.49,.34-.83,.83-.83h.75c.49,0,.81,.34,.81,.83v3.46h2.39c.49,0,.81,.26,.81,.75v.31c0,.49-.31,.73-.81,.73h-2.39v7.64c0,1.61,.83,2.21,1.95,2.21,.44,0,.81-.05,1.07-.08,.49-.1,.81,.05,.91,.52l.1,.57c.08,.47-.16,.83-.65,.94-.39,.08-.94,.13-1.53,.13-2.63,0-4.24-1.48-4.24-4v-7.93Z"/>
  </g>
</svg>